<svg id="Calque_1" data-name="Calque 1" xmlns="http://www.w3.org/2000/svg" viewBox="0 0 269 137"><defs><style>.cls-1{fill:#fff;}</style></defs><title>Plan de travail 72</title><path class="cls-1" d="M68.53,136.55a68.05,68.05,0,1,1,0-136.1h132a68.05,68.05,0,0,1,0,136.1H68.53ZM67.32,48a20.52,20.52,0,0,0,0,41H201.68a20.52,20.52,0,0,0,0-41Z"/><path class="cls-1" d="M82.31,76.67a2.9,2.9,0,0,0-2.47-1.4c-1.71,0-2.88,1.55-2.88,3.53s1.18,3.45,2.93,3.45a3.05,3.05,0,0,0,2.42-1.35v4a7.1,7.1,0,0,1-2.48.59,5.57,5.57,0,0,1-4.06-1.88A6.75,6.75,0,0,1,74,78.78a7.29,7.29,0,0,1,1.59-4.65,5.45,5.45,0,0,1,4.11-2.06,5.68,5.68,0,0,1,2.57.64Z"/><path class="cls-1" d="M95.6,78.53c0,4.11-2.51,7-6,7s-6-2.9-6-7a6,6,0,1,1,12,0Zm-9,0c0,2.2,1.37,3.8,3.05,3.8s3-1.6,3-3.8a3.06,3.06,0,1,0-6.1,0Z"/><path class="cls-1" d="M97,72.4h2.81L105,80.18h0V72.4h2.81V85.12H105l-5.14-7.79h0v7.79H97Z"/><path class="cls-1" d="M115.74,75.68a2.69,2.69,0,0,0-1.86-.85,1.15,1.15,0,0,0-1.2,1.07c0,.74.76,1,1.24,1.21l.72.25a3.41,3.41,0,0,1,2.67,3.48,4.76,4.76,0,0,1-1.12,3.42,4.33,4.33,0,0,1-3.07,1.2,6,6,0,0,1-3.8-1.45l1.21-2.67A3.59,3.59,0,0,0,113,82.66a1.26,1.26,0,0,0,1.36-1.28c0-.93-1.1-1.25-1.7-1.45-1.77-.59-2.93-1.13-2.93-3.6s1.57-4.26,3.73-4.26a6.53,6.53,0,0,1,3.38,1Z"/><path class="cls-1" d="M123.14,85.12h-2.81V75.2H118V72.4h7.45v2.8h-2.32Z"/><path class="cls-1" d="M135.64,85.12h-3.5l-2.65-4.89h0v4.89h-2.81V72.4h4.2c2.13,0,3.75,1.2,3.75,3.92,0,1.75-.83,3.27-2.36,3.59Zm-6.18-7h.27c.92,0,2-.2,2-1.58s-1-1.59-2-1.59h-.27Z"/><path class="cls-1" d="M145.92,72.4v7.15c0,1.64,0,3.26-1.13,4.49a5.22,5.22,0,0,1-7.16,0c-1.08-1.23-1.14-2.85-1.14-4.49V72.4h2.81v6.7c0,1.65.1,3.46,1.91,3.46s1.91-1.81,1.91-3.46V72.4Z"/><path class="cls-1" d="M155.58,76.67a2.9,2.9,0,0,0-2.46-1.4c-1.72,0-2.88,1.55-2.88,3.53s1.17,3.45,2.92,3.45a3,3,0,0,0,2.42-1.35v4a7,7,0,0,1-2.48.59,5.55,5.55,0,0,1-4-1.88,6.76,6.76,0,0,1-1.74-4.8,7.25,7.25,0,0,1,1.6-4.65A5.43,5.43,0,0,1,153,72.07a5.67,5.67,0,0,1,2.56.64Z"/><path class="cls-1" d="M161.77,85.12H159V75.2h-2.32V72.4h7.46v2.8h-2.33Z"/><path class="cls-1" d="M168.08,85.12h-2.81V72.4h2.81Z"/><path class="cls-1" d="M181.48,78.53c0,4.11-2.51,7-6,7s-6-2.9-6-7a6,6,0,1,1,11.95,0Zm-9,0c0,2.2,1.38,3.8,3.05,3.8s3.06-1.6,3.06-3.8a3.07,3.07,0,1,0-6.11,0Z"/><path class="cls-1" d="M182.94,72.4h2.81l5.15,7.78h0V72.4h2.81V85.12h-2.81l-5.14-7.79h0v7.79h-2.81Z"/><path class="cls-1" d="M82.31,76.67a2.9,2.9,0,0,0-2.47-1.4c-1.71,0-2.88,1.55-2.88,3.53s1.18,3.45,2.93,3.45a3.05,3.05,0,0,0,2.42-1.35v4a7.1,7.1,0,0,1-2.48.59,5.57,5.57,0,0,1-4.06-1.88A6.75,6.75,0,0,1,74,78.78a7.29,7.29,0,0,1,1.59-4.65,5.45,5.45,0,0,1,4.11-2.06,5.68,5.68,0,0,1,2.57.64Z"/><path class="cls-1" d="M95.6,78.53c0,4.11-2.51,7-6,7s-6-2.9-6-7a6,6,0,1,1,12,0Zm-9,0c0,2.2,1.37,3.8,3.05,3.8s3-1.6,3-3.8a3.06,3.06,0,1,0-6.1,0Z"/><path class="cls-1" d="M97,72.4h2.81L105,80.18h0V72.4h2.81V85.12H105l-5.14-7.79h0v7.79H97Z"/><path class="cls-1" d="M115.74,75.68a2.69,2.69,0,0,0-1.86-.85,1.15,1.15,0,0,0-1.2,1.07c0,.74.76,1,1.24,1.21l.72.25a3.41,3.41,0,0,1,2.67,3.48,4.76,4.76,0,0,1-1.12,3.42,4.33,4.33,0,0,1-3.07,1.2,6,6,0,0,1-3.8-1.45l1.21-2.67A3.59,3.59,0,0,0,113,82.66a1.26,1.26,0,0,0,1.36-1.28c0-.93-1.1-1.25-1.7-1.45-1.77-.59-2.93-1.13-2.93-3.6s1.57-4.26,3.73-4.26a6.53,6.53,0,0,1,3.38,1Z"/><path class="cls-1" d="M123.14,85.12h-2.81V75.2H118V72.4h7.45v2.8h-2.32Z"/><path class="cls-1" d="M135.64,85.12h-3.5l-2.65-4.89h0v4.89h-2.81V72.4h4.2c2.13,0,3.75,1.2,3.75,3.92,0,1.75-.83,3.27-2.36,3.59Zm-6.18-7h.27c.92,0,2-.2,2-1.58s-1-1.59-2-1.59h-.27Z"/><path class="cls-1" d="M145.92,72.4v7.15c0,1.64,0,3.26-1.13,4.49a5.22,5.22,0,0,1-7.16,0c-1.08-1.23-1.14-2.85-1.14-4.49V72.4h2.81v6.7c0,1.65.1,3.46,1.91,3.46s1.91-1.81,1.91-3.46V72.4Z"/><path class="cls-1" d="M155.58,76.67a2.9,2.9,0,0,0-2.46-1.4c-1.72,0-2.88,1.55-2.88,3.53s1.17,3.45,2.92,3.45a3,3,0,0,0,2.42-1.35v4a7,7,0,0,1-2.48.59,5.55,5.55,0,0,1-4-1.88,6.76,6.76,0,0,1-1.74-4.8,7.25,7.25,0,0,1,1.6-4.65A5.43,5.43,0,0,1,153,72.07a5.67,5.67,0,0,1,2.56.64Z"/><path class="cls-1" d="M161.77,85.12H159V75.2h-2.32V72.4h7.46v2.8h-2.33Z"/><path class="cls-1" d="M168.08,85.12h-2.81V72.4h2.81Z"/><path class="cls-1" d="M181.48,78.53c0,4.11-2.51,7-6,7s-6-2.9-6-7a6,6,0,1,1,11.95,0Zm-9,0c0,2.2,1.38,3.8,3.05,3.8s3.06-1.6,3.06-3.8a3.07,3.07,0,1,0-6.11,0Z"/><path class="cls-1" d="M182.94,72.4h2.81l5.15,7.78h0V72.4h2.81V85.12h-2.81l-5.14-7.79h0v7.79h-2.81Z"/><path class="cls-1" d="M91.36,60.77A4.62,4.62,0,1,1,96,65.38,4.62,4.62,0,0,1,91.36,60.77Zm4.62,9a9,9,0,1,0-9-9A9,9,0,0,0,96,69.77Z"/><path class="cls-1" d="M153.38,59.8c0,.32.05.64.05,1a9,9,0,1,1-.47-2.86l-4.89,0a4.62,4.62,0,1,0,.09,5.54h-4.78v-3.7Z"/><path class="cls-1" d="M119.65,63.33a6.39,6.39,0,0,1-12.78,0V52h4.36V63.33a2,2,0,0,0,2,2,2,2,0,0,0,2-2V52h4.41V63.33Z"/><path class="cls-1" d="M168.39,63.33a6.39,6.39,0,1,1-12.78,0V52H160V63.33a2,2,0,0,0,2,2,2,2,0,0,0,2-2V52h4.41V63.33Z"/><polygon class="cls-1" points="181.07 52 181.07 56.03 175.91 56.03 175.91 58.76 181.07 58.76 181.07 62.78 175.91 62.78 175.91 62.78 175.91 65.49 181.06 65.49 181.06 69.54 171.59 69.54 171.59 52 181.07 52"/><path class="cls-1" d="M189.59,62.7l-1.15-.26c-.59-.13-1.87-.61-1.87-.61a4.93,4.93,0,0,1-3-4.54,5.57,5.57,0,0,1,11.14,0h-4.08v-.52a1.5,1.5,0,0,0-1.49-1.54,1.54,1.54,0,0,0-1.54,1.54,1.57,1.57,0,0,0,.42,1.05,2.8,2.8,0,0,0,1.32.73,13,13,0,0,1,2.39.61h0a5.18,5.18,0,0,1,3.19,4.76,5.79,5.79,0,1,1-11.58,0h4a1.69,1.69,0,0,0,0,.45,1.78,1.78,0,0,0,3.56,0A1.76,1.76,0,0,0,189.59,62.7Z"/><path class="cls-1" d="M80.56,52H74.07V69.54h6.49A5.09,5.09,0,0,0,83,60a4.36,4.36,0,0,0-2.44-8ZM78.43,65.5V62.16h1.65a1.67,1.67,0,0,1,0,3.33ZM80.08,56a1.3,1.3,0,1,1,0,2.6H78.43V56Z"/><polygon class="cls-1" points="130.79 69.55 130.79 63.14 135.87 52 131.31 52 128.6 57.9 125.88 52 121.31 52 126.42 63.14 126.42 69.55 130.79 69.55"/></svg>