<svg id="Calque_1" data-name="Calque 1" xmlns="http://www.w3.org/2000/svg" viewBox="0 0 309.1 123.6"><defs><style>.cls-1{fill:#fff;}</style></defs><path class="cls-1" d="M335.21,268.51a65,65,0,0,0-8.21,7.36c-1.53,1.51-2.77,2.78-3.62,3.66l-7.36,7.8,5.92-18.76a2.89,2.89,0,0,0-.17-1.68,2.85,2.85,0,0,0-1.13-1.29,3.65,3.65,0,0,0-2.75-.37,2.82,2.82,0,0,0-1.95,1,1.92,1.92,0,0,0-.32.91l-.58,1.87c-1,1.13-2.39,2.63-4.08,4.34-1.83,1.86-3.83,3.88-6.64,6.26-2,1.67-3.5,2.8-4.89,3.83-4.91,3.62-7.16,4.68-8.13,5.11-2.61,1.15-4.15,1.38-5.62,1.19a4.75,4.75,0,0,1-3.45-1.66,5,5,0,0,1-.55-3.19,13.45,13.45,0,0,1,.64-3.11c.27-1,.53-1.78.72-2.34a18.21,18.21,0,0,0,7.11-.81,19.7,19.7,0,0,0,3.57-1.62,20.28,20.28,0,0,0,7.19-5.87,4.94,4.94,0,0,0,1.11-2.38,4.64,4.64,0,0,0-1.49-3.92c-1.24-1.12-2.76-1.13-4.25-1.15a13.69,13.69,0,0,0-5.19,1.07,25.93,25.93,0,0,0-8.6,5.19,22.09,22.09,0,0,0-5.53,7.36c-.34.74-.57,1.38-.73,1.83-4.28,3.12-7.4,5.58-9.57,7.36-2.55,2.1-5.71,3.33-8.51,5.07-.38.23-1.58,1-2.21.55-.36-.24-.42-.77-.47-1.32a6,6,0,0,1,.3-2.42A34.45,34.45,0,0,1,257,285c.53-1.33.95-2.3,1.15-2.77.35-.8.66-1.48.89-2l14.73-25.59c21.9-2.64,37.61-4.61,48.51-6,5-.65,12.48-1.61,22.66-2.62,9.95-1,18.18-1.61,23.8-2-7.1,0-13.23.17-18.12.32-13.62.41-22.93,1.06-25.41,1.23l-3.4.26-45.53,4.89,8.72-13a14.72,14.72,0,0,1,3.45-3.48l.89-.56-4.68,0a12.85,12.85,0,0,0-2.26.77,12.67,12.67,0,0,0-2.85,1.83,16.9,16.9,0,0,0-2.29,2.3,38.19,38.19,0,0,0-2.52,3.4c-1.25,1.78-1.23,1.67-2.44,3.39-1.07,1.49-2.51,3.59-4.21,6.25l-23,4a29.58,29.58,0,0,0-7.69,2.2,10.94,10.94,0,0,0-2.65,1.79,4.74,4.74,0,0,0-1.69,2.55,2,2,0,0,0,.19,1.57,1.76,1.76,0,0,0,1.79.54c.16,0,.35-.12,1-.67a13.85,13.85,0,0,0,1.25-1.12,13.71,13.71,0,0,1,2.2-1.82c.45-.28.82-.43,3.6-1.18l2.43-.64,19.79-3.06-4,6.77-22.6,7.91-15.06,6a168.55,168.55,0,0,0-23-3.51c-3.53-.27-7-1-10.53-1.47-1-.13-8.81-1.13-12-4a5,5,0,0,1-1.72-2.81,4.69,4.69,0,0,1,.19-2.17,12.62,12.62,0,0,1,2.36-4.59,22.29,22.29,0,0,1,4.15-4c5.84-4.3,8.75-6.46,10-7.21,6-3.76,10.91-6.27,12.34-7a236.91,236.91,0,0,1,30.55-13.36c6.61-2.33,3.55-.91,17-5.23a88.67,88.67,0,0,1,18.24-3.37s5.28-.39,5.66.94a2,2,0,0,1-.09.89,4.15,4.15,0,0,1-.93,1.75,27.28,27.28,0,0,1-2.77,3c-1.81,1.45-.35.64-5.74,5.49-2.34,2.1-5,4.51-8.77,7.49-4.43,3.51-5.48,3.95-10.13,7.7-2.19,1.77-3.93,3.26-5,4.21,2-1.2,4.76-2.87,8-4.89,3.85-2.37,6.07-3.78,10.51-6.6,5.95-3.77,7.49-4.8,9.55-6.48,1.48-1.21,2.65-2.32,5-4.53a22,22,0,0,0,4.25-4.95c1.19-2,1.32-3.07,1.24-3.92a4.89,4.89,0,0,0-1.18-2.78,5.24,5.24,0,0,0-2.13-1.4,18.1,18.1,0,0,0-6.4-1.09,96.12,96.12,0,0,0-10.47.6c-1.11.14-4.75.62-8.34,1.36-21.88,4.54-43.06,14.34-43.06,14.34a217.49,217.49,0,0,0-25,13.62L183.51,244c-.81.68-7.83,6.69-11,11.3a11.66,11.66,0,0,0-1.91,4.08,11.27,11.27,0,0,0-.16,4.34,11.62,11.62,0,0,0,2,5,13.25,13.25,0,0,0,5.23,4.12,32.75,32.75,0,0,0,9.8,3c8.24,1.42,13.52,1.84,21.16,2.9,3,.42,5.4.81,6.85,1.05-19.69,9.3-35.57,17-46.72,22.38-5.89,2.84-11.12,6.88-16.81,10.09a37.66,37.66,0,0,0-10.6,9.44,9.92,9.92,0,0,0-1.85,4.21,7.74,7.74,0,0,0,1.09,5.75c.69.95,1.64,1.64,3.76,2.49a28,28,0,0,0,8.75,2,81.78,81.78,0,0,0,21.13-2.24,162.84,162.84,0,0,0,36.83-14.23s7.45-4,20.46-14.51a22.83,22.83,0,0,0,6.09-7.19c1.16-2.2,3.2-6,2-10.43a12.54,12.54,0,0,0-4.17-6.13,16.18,16.18,0,0,0-5.49-2.93,19.08,19.08,0,0,0-3-.73l32.76-12.46-8.9,17.81a17.42,17.42,0,0,0-1.6,5.26,8.25,8.25,0,0,0,.19,4.37,5.44,5.44,0,0,0,2.72,3.16,5.7,5.7,0,0,0,3.25.23,11.69,11.69,0,0,0,3.77-1.28,41.64,41.64,0,0,0,4.79-2.78c2.36-1.57,4.82-3.35,7.62-5.58,1.51-1.2,2.73-2.23,3.57-2.94a9.45,9.45,0,0,0,.89,5.28,8.39,8.39,0,0,0,3.19,3.62,9.74,9.74,0,0,0,5.45,1.06,18,18,0,0,0,4.51-.68,28,28,0,0,0,7.53-3.62,53.92,53.92,0,0,0,5.15-3.74c2.37-1.89,4.42-3.79,8.43-7.51l3-2.85-3.38,11.08a7.69,7.69,0,0,0-.28,3.74,4.16,4.16,0,0,0,1.23,2.73,4.41,4.41,0,0,0,2.94.72,4.23,4.23,0,0,0,1.68-.27,4.86,4.86,0,0,0,1.76-1.37c.78-.85,1.66-1.62,2.37-2.53.56-.72,2.86-3.38,7.45-8.68,3.53-4.09,6.53-6.54,11.91-10.94a35.7,35.7,0,0,1,7.11-4.72,34.59,34.59,0,0,1,4.12-1.7,25.62,25.62,0,0,0-8.85,1.83A28.75,28.75,0,0,0,335.21,268.51Zm-49.61,7a25.28,25.28,0,0,1,4.06-4.47,26.88,26.88,0,0,1,2.55-1.91,19.24,19.24,0,0,1,2.85-1.62,6.3,6.3,0,0,1,1.34-.38c.91-.17,1.15,0,1.26.06a1,1,0,0,1,.34.74,3.35,3.35,0,0,1-.6,2.2,8.62,8.62,0,0,1-2.21,2.38,27.88,27.88,0,0,1-5.15,3,38.43,38.43,0,0,1-5.49,1.93l-.29.05C284.56,277,285,276.28,285.6,275.49Zm-55.88,7.79a10,10,0,0,1,3.32,2.34,6.55,6.55,0,0,1,1.62,2.85A7,7,0,0,1,234,293c-.63,1.48-1.52,2.46-3.28,4.34a47.71,47.71,0,0,1-3.87,3.7c-2.26,2-4.16,3.38-5,4a109.62,109.62,0,0,1-12.21,7.49A169,169,0,0,1,184.11,324s-13.27,4.54-24.09,5.7c-1.71.18-3.48.28-3.48.28-1.44.07-2.83.06-5.61,0a14.25,14.25,0,0,1-4-.48,3.28,3.28,0,0,1-1.89-1.09,2.86,2.86,0,0,1-.57-1.72,3.31,3.31,0,0,1,.61-1.88,18.37,18.37,0,0,1,3.38-4.21c7.46-6.11,4.88-4.44,7.21-6,7.81-5.16,11.72-7.74,15.77-10,5.81-3.29,10.1-5.48,16.15-8.56,7.51-3.82,13.65-6.77,20.55-10.08,4.37-2.1,8-3.81,10.47-5l1-.51a37.84,37.84,0,0,1,4,.72A24.94,24.94,0,0,1,229.72,283.28Z" transform="translate(-139.39 -212.55)"/><path class="cls-1" d="M432.23,284.51c-2.88.74-2.23.48-13.57,3.15-.53.12-2.48.58-5.11,1.11a41,41,0,0,1-11.27.85,5.74,5.74,0,0,1-3.79-1.45,4.63,4.63,0,0,1-1.11-2,6.17,6.17,0,0,1,.09-2.85,17.29,17.29,0,0,1,.59-2.21c.36-1.1.65-2,1.2-3.32,1.19-2.91,1.77-3.37,3.06-6.51a8.83,8.83,0,0,0,.77-3.43,4,4,0,0,0-.52-2.25,3.27,3.27,0,0,0-1.51-1.32,3.7,3.7,0,0,0-1.95-.17,7.22,7.22,0,0,0-1.81.47,14.68,14.68,0,0,0-2.3,1,25.63,25.63,0,0,0-4.26,3.06c-.67.55-1.21,1-1.57,1.32l-12.83,11.84,7.79-14.94a1.61,1.61,0,0,0,0-1.24,1.65,1.65,0,0,0-.67-.67,3.1,3.1,0,0,0-1.41-.42,6.46,6.46,0,0,0-2.36.2,5.53,5.53,0,0,0-1.53.67,5.09,5.09,0,0,0-.48.35l-2.14,3a107.1,107.1,0,0,1-9.57,9.54c-2.62,2.3-4.51,3.72-6.32,5.08a68.28,68.28,0,0,1-8.68,5.29,10.43,10.43,0,0,1-4.66,1.22,4.46,4.46,0,0,1-2.52-.58,3.76,3.76,0,0,1-1.5-1.63,4.56,4.56,0,0,1-.35-2.07,11.82,11.82,0,0,1,.28-3,11,11,0,0,1,.8-2.36,8.37,8.37,0,0,1,.58-1,19.38,19.38,0,0,0,4.3-.16,19.08,19.08,0,0,0,3.29-.8,25.7,25.7,0,0,0,9.22-6.22,7.42,7.42,0,0,0,1.35-2.27,4.79,4.79,0,0,0,.12-3.51,4,4,0,0,0-1.69-1.92,5.32,5.32,0,0,0-2.71-.47,16.73,16.73,0,0,0-3.42.25,18.92,18.92,0,0,0-3.7,1.09,23.15,23.15,0,0,0-5.49,3.19,24.25,24.25,0,0,0-4.27,3.89,26.5,26.5,0,0,0-3.67,5.71c-.47,1-.8,1.81-1,2.43l-.09.52a11.5,11.5,0,0,0-.43,3.19,10.13,10.13,0,0,0,1,4.51,8.39,8.39,0,0,0,3.07,3.62,8.77,8.77,0,0,0,4.68,1.23,13.52,13.52,0,0,0,4.15-.5,22.78,22.78,0,0,0,4-1.43,40.28,40.28,0,0,0,4-2,44.91,44.91,0,0,0,6.44-4.69c2.27-1.87,4-3.47,7.41-6.67,1.22-1.15,2.22-2.09,2.87-2.72-2.46,5.37-4.25,9.39-4.95,10.95a6.16,6.16,0,0,0-.54,2.27,3.79,3.79,0,0,0,.23,1.62,3.91,3.91,0,0,0,1.81,1.89,2.51,2.51,0,0,0,1.09.38,1.4,1.4,0,0,0,.83-.13,1.69,1.69,0,0,0,.51-.48c.24-.28.51-.54.73-.83,1-1.24,2.06-2.41,3.07-3.63.84-1,1.92-2.2,4.08-4.54a116.18,116.18,0,0,1,10.57-10.43c.66-.53.74-.54,1.39-1.09a15,15,0,0,1,3.49-2.49c.27-.11.65-.23.8-.08s.08.13,0,.47a2.78,2.78,0,0,1-.33.87c-.43.64-.67,1.4-1.09,2.06a31.76,31.76,0,0,0-2.15,4.49,19.22,19.22,0,0,0-1.19,4.68,11.87,11.87,0,0,0,.13,4.6,9,9,0,0,0,1.53,3.32,9.57,9.57,0,0,0,2.47,2.21,11.57,11.57,0,0,0,4.89,1.57,25.89,25.89,0,0,0,6.77-.17c.51-.05,1.94-.2,4.13-.55,1.22-.2,4-.67,7.91-1.62,3.27-.79,5.59-1.5,8.6-2.42,1.75-.54,4.27-1.31,7.57-2.47,6.24-2.19,8.27-3.29,9.75-4.21a32.16,32.16,0,0,0,3.36-2.43A156.78,156.78,0,0,1,432.23,284.51ZM346.12,275a28,28,0,0,1,3.06-3.51,23.78,23.78,0,0,1,3.45-2.68,17.19,17.19,0,0,1,2.81-1.47,7.27,7.27,0,0,1,1.15-.32,2,2,0,0,1,1.24,0,1,1,0,0,1,.41.29c.13.17.33.58-.19,1.75a7.83,7.83,0,0,1-1.75,2.49,18.14,18.14,0,0,1-3.26,2.37,25.83,25.83,0,0,1-6.8,3c-.56.15-1,.25-1.34.32l-.47,0C344.83,276.73,345.4,275.93,346.12,275Z" transform="translate(-139.39 -212.55)"/><path class="cls-1" d="M244.26,320.08V306.91h2.45v13.17Zm2.32,0v-2.34h1a3.41,3.41,0,0,0,2.71-1,4.49,4.49,0,0,0,.9-3,5.18,5.18,0,0,0-.9-3.31,3.27,3.27,0,0,0-2.71-1.13h-1l-.22-2.33h1.22q6.18,0,6.18,6.77,0,6.4-6.18,6.4Z" transform="translate(-139.39 -212.55)"/><path class="cls-1" d="M260.52,320.08V306.91H263v13.17Zm0-10.92v-2.25h9v2.25Zm0,5.45v-2.26h7.36v2.26Zm0,5.47v-2.26h9v2.26Z" transform="translate(-139.39 -212.55)"/><path class="cls-1" d="M298.27,320.26q-6.28,0-6.29-6.79a7.19,7.19,0,0,1,1.58-5,5.73,5.73,0,0,1,4.49-1.77,6,6,0,0,1,2.32.42,3.28,3.28,0,0,1,1.53,1.2l-1.37,1.8a2.84,2.84,0,0,0-1.06-.8,3.43,3.43,0,0,0-1.4-.28,3.2,3.2,0,0,0-2.56,1.12,4.81,4.81,0,0,0-1,3.2q0,4.55,4,4.55a6.71,6.71,0,0,0,2.65-.56l.43,2.26A9.29,9.29,0,0,1,298.27,320.26Z" transform="translate(-139.39 -212.55)"/><path class="cls-1" d="M307.67,320.08l3.8-13.17h3l3.8,13.17h-2.64l-2.58-10h-.17l-2.58,10Zm1.92-2.5v-2.26h6.68v2.26Z" transform="translate(-139.39 -212.55)"/><path class="cls-1" d="M324.62,320.08V306.91h2.45v13.17Zm2.32-4.83V313h2.37a1.73,1.73,0,0,0,1.32-.5,2.34,2.34,0,0,0,0-2.84,1.73,1.73,0,0,0-1.32-.5H327l-.22-2.25h2.55a4.76,4.76,0,0,1,3.28,1,3.78,3.78,0,0,1,1.16,2.95,4.33,4.33,0,0,1-1.16,3.22,4.48,4.48,0,0,1-3.28,1.14Zm4.37,4.83-2.49-6.2h2.58l2.83,6.2Z" transform="translate(-139.39 -212.55)"/><path class="cls-1" d="M343.22,320.08l-3.41-13.17h2.54l2.69,11h.16l2.69-11h2.54L347,320.08Z" transform="translate(-139.39 -212.55)"/><path class="cls-1" d="M355.89,320.08l3.8-13.17h3l3.8,13.17h-2.65l-2.57-10h-.17l-2.58,10Zm1.92-2.5v-2.26h6.68v2.26Z" transform="translate(-139.39 -212.55)"/><path class="cls-1" d="M373,320.08V306.91h2.45v13.17Zm0,0v-2.26h9v2.26Z" transform="translate(-139.39 -212.55)"/><path class="cls-1" d="M388.91,320.08V306.91h2.45v13.17Zm.39-5.43v-2.26h8.12v2.26Zm6,5.43V306.91h2.45v13.17Z" transform="translate(-139.39 -212.55)"/><path class="cls-1" d="M409.41,320.26c-3.34,0-5-2.22-5-6.68s1.68-6.86,5-6.86,5,2.29,5,6.86S412.76,320.26,409.41,320.26Zm0-2.33q2.44,0,2.45-4.35,0-4.51-2.45-4.52T407,313.58Q407,317.93,409.41,317.93Z" transform="translate(-139.39 -212.55)"/></svg>